:FULLY-SPECIFIED
:DEGREES
2596
root 3.74986 16.5419 -2.2471 154.698 -91.664 -136.197
lowerback -8.29803 1.14029 1.72215
upperback -4.85895 1.25312 -1.11292
thorax -0.311605 0.514239 -2.01487
lowerneck -15.3814 -1.73425 2.02432
upperneck 19.5137 -3.28803 1.01309
head 8.61503 -1.35245 -0.392211
rclavicle 6.36111e-015 1.65861e-015
rhumerus -29.1666 2.7538 -82.335
rradius 39.9386
rwrist 11.3679
rhand -26.6196 -4.94419
rfingers 7.12502
rthumb -0.0526702 -34.9239
lclavicle 6.36111e-015 1.65861e-015
lhumerus -44.1907 0.410657 83.6747
lradius 32.8219
lwrist -8.29173
lhand -34.4467 -2.65328
lfingers 7.12502
lthumb -7.61077 27.1898
rfemur -14.79 11.5624 24.2335
rtibia 16.7807
rfoot -16.9813 -23.751
rtoes -9.63387
lfemur -44.5534 -25.5817 -7.27487
ltibia 15.3709
lfoot -9.18209 32.0751
ltoes -10.1142
2597
root 3.75723 16.5322 -2.23092 159.622 -91.5874 -141.041
lowerback -8.35883 1.17148 1.85317
upperback -4.86433 1.28394 -1.0863
thorax -0.280311 0.527499 -2.05766
lowerneck -15.3975 -1.77126 2.03421
upperneck 19.4342 -3.33963 1.02352
head 8.59073 -1.37518 -0.395782
rclavicle -8.74653e-015 1.47598e-014
rhumerus -29.0195 2.87482 -82.3659
rradius 40.0617
rwrist 11.0352
rhand -26.6872 -5.01389
rfingers 7.12502
rthumb -0.117952 -34.9936
lclavicle -8.74653e-015 1.47598e-014
lhumerus -44.2774 0.363114 83.6634
lradius 32.8665
lwrist -8.29726
lhand -34.445 -2.90458
lfingers 7.12502
lthumb -7.6091 26.9385
rfemur -14.008 11.3027 24.458
rtibia 16.1581
rfoot -16.8658 -23.4016
rtoes -10.2709
lfemur -46.2576 -29.9919 -2.97811
ltibia 14.1898
lfoot -10.5963 37.8983
ltoes -7.15726
2598
root 3.76191 16.5225 -2.21663 159.321 -91.5766 -140.704
lowerback -8.36609 1.154 1.75276
upperback -4.88248 1.26646 -1.06717
thorax -0.298293 0.520167 -1.98294
lowerneck -15.3945 -1.7428 2.04593
upperneck 19.4023 -3.31003 1.06145
head 8.58016 -1.35672 -0.381164
rclavicle -1.98785e-014 2.31833e-014
rhumerus -28.9753 2.96564 -82.413
rradius 40.2188
rwrist 10.7474
rhand -26.8713 -4.90947
rfingers 7.12502
rthumb -0.295826 -34.889
lclavicle -1.98785e-014 2.31833e-014
lhumerus -44.4054 0.319763 83.7336
lradius 32.9475
lwrist -7.98341
lhand -34.5319 -2.86777
lfingers 7.12502
lthumb -7.69294 26.9723
rfemur -13.3241 11.1421 24.5017
rtibia 15.8178
rfoot -16.8943 -23.2479
rtoes -11.3567
lfemur -47.9028 -33.4477 0.484236
ltibia 13.3154
lfoot -13.2014 42.8912
ltoes -4.33258
2599
root 3.76693 16.5095 -2.20076 164.322 -91.5551 -145.661
lowerback -8.36474 1.15993 1.81255
upperback -4.89731 1.26965 -1.0313
thorax -0.313847 0.52057 -1.97943
lowerneck -15.4363 -1.77042 2.04838
upperneck 19.381 -3.34762 1.0595
head 8.58023 -1.37398 -0.386884
rclavicle -9.54166e-015 1.22128e-014
rhumerus -28.9234 2.88461 -82.3829
rradius 40.2974
rwrist 11.0377
rhand -26.8312 -5.06147
rfingers 7.12502
rthumb -0.257029 -35.0411
lclavicle -9.54166e-015 1.22128e-014
lhumerus -44.4512 0.299322 83.7288
lradius 32.9571
lwrist -8.20405
lhand -34.4456 -2.86558
lfingers 7.12502
lthumb -7.60971 26.9775
rfemur -12.7383 10.867 24.691
rtibia 15.6682
rfoot -17.0147 -22.8893
rtoes -12.1771
lfemur -48.9953 -35.4113 2.66902
ltibia 12.7499
lfoot -15.5931 46.1237
ltoes -2.67799
2600
root 3.77245 16.4974 -2.18521 165.714 -91.5859 -146.948
lowerback -8.44804 1.11522 1.71125
upperback -4.91102 1.21415 -0.98827
thorax -0.287656 0.494793 -1.88145
lowerneck -15.4443 -1.74526 2.00566
upperneck 19.3482 -3.31439 1.12159
head 8.57271 -1.35507 -0.354864
rclavicle -7.15625e-015 1.20265e-014
rhumerus -28.8675 2.88042 -82.3978
rradius 40.3429
rwrist 10.9027
rhand -26.9842 -4.8532
rfingers 7.12502
rthumb -0.404804 -34.8326
lclavicle -7.15625e-015 1.20265e-014
lhumerus -44.4247 0.257966 83.8301
lradius 32.9057
lwrist -8.05384
lhand -34.5146 -2.7947
lfingers 7.12502
lthumb -7.67631 27.046
rfemur -12.3331 10.5845 24.7496
rtibia 15.7029
rfoot -17.0717 -22.7164
rtoes -13.5137
lfemur -49.1674 -35.7826 2.96461
ltibia 12.3808
lfoot -17.0037 47.1825
ltoes -2.08256
2601
root 3.77524 16.4863 -2.17064 168.698 -91.6316 -149.943
lowerback -8.41589 1.10462 1.66025
upperback -4.90841 1.2046 -0.969281
thorax -0.304343 0.491389 -1.83442
lowerneck -15.394 -1.78197 1.98879
upperneck 19.2542 -3.36622 1.17177
head 8.53283 -1.37687 -0.339874
rclavicle 2.38542e-015 -2.33572e-015
rhumerus -28.9182 2.71408 -82.4142
rradius 40.4442
rwrist 10.8577
rhand -27.0812 -5.14031
rfingers 7.12502
rthumb -0.49854 -35.1195
lclavicle 2.38542e-015 -2.33572e-015
lhumerus -44.3549 0.155425 83.8699
lradius 32.818
lwrist -8.06379
lhand -34.5104 -2.83721
lfingers 7.12502
lthumb -7.67226 27.0036
rfemur -11.8857 10.1379 24.8954
rtibia 15.8745
rfoot -17.0941 -22.3932
rtoes -15.0796
lfemur -48.1437 -34.671 1.35018
ltibia 12.2089
lfoot -15.8751 45.9966
ltoes -2.85793
2602
root 3.77727 16.4748 -2.15513 170.985 -91.7351 -152.173
lowerback -8.50715 1.04024 1.53951
upperback -4.8891 1.12578 -0.917065
thorax -0.240728 0.455669 -1.71766
lowerneck -15.523 -1.75699 1.97411
upperneck 19.3215 -3.33698 1.18766
head 8.57974 -1.36018 -0.330744
rclavicle -1.11319e-014 1.41137e-014
rhumerus -28.9732 2.69332 -82.4367
rradius 40.5218
rwrist 10.7454
rhand -27.1421 -5.18632
rfingers 7.12502
rthumb -0.557359 -35.1653
lclavicle -1.11319e-014 1.41137e-014
lhumerus -44.2531 0.193392 83.9073
lradius 32.7003
lwrist -8.38467
lhand -34.4882 -2.90316
lfingers 7.12502
lthumb -7.65078 26.9384
rfemur -11.5604 9.77466 24.9598
rtibia 16.2066
rfoot -17.1959 -22.1264
rtoes -15.9237
lfemur -46.5826 -32.4075 -1.48389
ltibia 12.2111
lfoot -13.2104 42.897
ltoes -4.39239
2603
root 3.77754 16.4634 -2.13831 173.718 -91.8179 -154.904
lowerback -8.51042 1.02443 1.50212
upperback -4.87612 1.10809 -0.923474
thorax -0.226745 0.447986 -1.70457
lowerneck -15.5886 -1.7956 2.01977
upperneck 19.3177 -3.40686 1.20642
head 8.58978 -1.38701 -0.340917
rclavicle 4.77083e-015 -2.26118e-015
rhumerus -28.9828 2.32656 -82.4953
rradius 40.3639
rwrist 10.4019
rhand -27.384 -4.93999
rfingers 7.12502
rthumb -0.790923 -34.9183
lclavicle 4.77083e-015 -2.26118e-015
lhumerus -44.0747 0.0490037 83.9358
lradius 32.4938
lwrist -8.57342
lhand -34.5551 -3.02319
lfingers 7.12502
lthumb -7.71536 26.8161
rfemur -11.2375 9.44398 25.0347
rtibia 16.6665
rfoot -17.5322 -21.7275
rtoes -16.7575
lfemur -44.9166 -29.6864 -4.62992
ltibia 12.4574
lfoot -10.562 38.8893
ltoes -6.24536
2604
root 3.77493 16.4479 -2.12247 179.159 -91.8811 -160.373
lowerback -8.51453 0.996366 1.49849
upperback -4.86133 1.07135 -0.848756
thorax -0.212032 0.431217 -1.62831
lowerneck -15.5715 -1.79172 2.02439
upperneck 19.2887 -3.40069 1.20656
head 8.57677 -1.38417 -0.340426
rclavicle -9.54166e-015 2.55935e-015
rhumerus -29.1714 2.06928 -82.4661
rradius 40.3683
rwrist 10.7267
rhand -27.3502 -5.07644
rfingers 7.12502
rthumb -0.75837 -35.0548
lclavicle -9.54166e-015 2.55935e-015
lhumerus -43.9477 0.0404628 83.9762
lradius 32.3885
lwrist -8.84315
lhand -34.4859 -2.94737
lfingers 7.12502
lthumb -7.64861 26.8943
rfemur -10.9128 9.00823 25.2435
rtibia 17.197
rfoot -17.743 -21.2694
rtoes -17.7523
lfemur -43.3994 -26.8902 -7.53538
ltibia 12.9464
lfoot -9.36074 34.8261
ltoes -6.62788
2605
root 3.76952 16.4292 -2.10294 182.398 -91.9647 -163.68
lowerback -8.49104 0.967642 1.44483
upperback -4.84888 1.03794 -0.80612
thorax -0.214929 0.416532 -1.55714
lowerneck -15.6803 -1.80501 2.05647
upperneck 19.3893 -3.44119 1.23467
head 8.6307 -1.39582 -0.343276
rclavicle 4.77083e-015 -7.90169e-015
rhumerus -29.3812 1.79033 -82.4706
rradius 40.3319
rwrist 10.8899
rhand -27.408 -5.1072
rfingers 7.12502
rthumb -0.814153 -35.0854
lclavicle 4.77083e-015 -7.90169e-015
lhumerus -43.7878 0.00772298 83.9981
lradius 32.1949
lwrist -9.19259
lhand -34.4518 -3.0187
lfingers 7.12502
lthumb -7.61568 26.8242
rfemur -10.5054 8.49439 25.3827
rtibia 17.6488
rfoot -17.7339 -20.8437
rtoes -18.9462
lfemur -42.1679 -24.4899 -10.0263
ltibia 13.6668
lfoot -8.92199 31.398
ltoes -6.48622
2606
root 3.75809 16.4161 -2.0801 183.37 -91.9083 -164.732
lowerback -8.51956 0.964902 1.36183
upperback -4.83562 1.03987 -0.782071
thorax -0.187211 0.419806 -1.48508
lowerneck -15.5936 -1.80144 2.06626
upperneck 19.3439 -3.4407 1.25926
head 8.59998 -1.39401 -0.335178
rclavicle -5.56597e-015 1.80894e-014
rhumerus -29.6327 1.58877 -82.488
rradius 40.2546
rwrist 11.0627
rhand -27.2289 -5.12239
rfingers 7.12502
rthumb -0.641123 -35.1012
lclavicle -5.56597e-015 1.80894e-014
lhumerus -43.6576 0.0354953 84.017
lradius 32.0652
lwrist -9.37851
lhand -34.4018 -2.96111
lfingers 7.12502
lthumb -7.56742 26.8835
rfemur -10.1367 7.99738 25.3944
rtibia 18.164
rfoot -17.6049 -20.2012
rtoes -20.5504
lfemur -41.3917 -23.2436 -11.4263
ltibia 14.3739
lfoot -7.93956 29.6196
ltoes -6.0702
2607
root 3.74833 16.4162 -2.05522 185.743 -91.8971 -167.242
lowerback -8.42697 0.935978 1.34347
upperback -4.81252 1.00542 -0.731173
thorax -0.216509 0.404299 -1.4261
lowerneck -15.6531 -1.8036 2.02932
upperneck 19.3947 -3.44869 1.30463
head 8.62962 -1.39458 -0.315961
rclavicle -1.19271e-014 1.87355e-014
rhumerus -29.8197 1.36358 -82.5207
rradius 40.0593
rwrist 10.9783
rhand -27.2555 -5.05596
rfingers 7.12502
rthumb -0.666904 -35.0347
lclavicle -1.19271e-014 1.87355e-014
lhumerus -43.5338 0.114791 84.0506
lradius 31.973
lwrist -9.60871
lhand -34.4457 -3.04495
lfingers 7.12502
lthumb -7.60974 26.7981
rfemur -9.78765 7.61797 25.4318
rtibia 18.8452
rfoot -17.5778 -19.6155
rtoes -21.9165
lfemur -41.0844 -23.086 -11.7856
ltibia 14.8992
lfoot -6.59566 29.5941
ltoes -4.16104
2608
root 3.73371 16.4241 -2.02873 182.418 -91.8067 -163.925
lowerback -8.49642 0.93276 1.18336
upperback -4.8575 1.00899 -0.793703
thorax -0.226298 0.406672 -1.39981
lowerneck -15.5076 -1.80164 2.02132
upperneck 19.3906 -3.47316 1.4387
head 8.60507 -1.39527 -0.270921
rclavicle 7.15625e-015 -4.87022e-015
rhumerus -30.1217 1.05389 -82.6511
rradius 39.8468
rwrist 11.2315
rhand -27.1213 -5.1838
rfingers 7.12502
rthumb -0.53725 -35.1629
lclavicle 7.15625e-015 -4.87022e-015
lhumerus -43.4423 0.181034 83.9836
lradius 31.8484
lwrist -9.9252
lhand -34.4454 -3.01861
lfingers 7.12502
lthumb -7.60946 26.8245
rfemur -9.66169 7.30283 25.2239
rtibia 19.7103
rfoot -17.4444 -18.9529
rtoes -23.9357
lfemur -40.9677 -23.2736 -11.9766
ltibia 15.2673
lfoot -5.57271 30.2403
ltoes -5.5408
2609
root 3.71993 16.4343 -2.00259 173.332 -91.7621 -154.814
lowerback -8.57071 0.879354 0.79327
upperback -4.89464 0.962197 -0.826247
thorax -0.231024 0.388765 -1.21748
lowerneck -15.6328 -1.79396 1.95741
upperneck 19.5668 -3.462 1.45181
head 8.68908 -1.39019 -0.257651
rclavicle -1.90833e-014 1.52567e-014
rhumerus -30.3454 0.681353 -82.6577
rradius 39.4501
rwrist 11.9366
rhand -27.005 -5.32371
rfingers 7.12502
rthumb -0.42494 -35.303
lclavicle -1.90833e-014 1.52567e-014
lhumerus -43.2749 0.397079 83.958
lradius 31.6385
lwrist -10.1093
lhand -34.4706 -3.26613
lfingers 7.12502
lthumb -7.63376 26.5761
rfemur -9.81032 6.81831 24.8206
rtibia 20.9332
rfoot -17.1547 -18.1928
rtoes -25.2678
lfemur -40.7575 -23.3542 -12.4161
ltibia 15.4549
lfoot -4.40217 30.2379
ltoes -7.40903
